<?xml version="1.0" encoding="UTF-8" standalone="no"?>
<!-- Created with Inkscape (http://www.inkscape.org/) -->

<svg
   width="1024mm"
   height="1024mm"
   viewBox="0 0 1024 1024"
   version="1.1"
   id="svg1"
   inkscape:export-filename="pressurePenType2.svg"
   inkscape:export-xdpi="96"
   inkscape:export-ydpi="96"
   xmlns:inkscape="http://www.inkscape.org/namespaces/inkscape"
   xmlns:sodipodi="http://sodipodi.sourceforge.net/DTD/sodipodi-0.dtd"
   xmlns="http://www.w3.org/2000/svg"
   xmlns:svg="http://www.w3.org/2000/svg">
  <sodipodi:namedview
     id="namedview1"
     pagecolor="#ffffff"
     bordercolor="#000000"
     borderopacity="0.25"
     inkscape:showpageshadow="2"
     inkscape:pageopacity="0.0"
     inkscape:pagecheckerboard="0"
     inkscape:deskcolor="#d1d1d1"
     inkscape:document-units="mm"
     inkscape:zoom="0.17215734"
     inkscape:cx="2082.3974"
     inkscape:cy="2076.5888"
     inkscape:window-width="1920"
     inkscape:window-height="991"
     inkscape:window-x="-9"
     inkscape:window-y="-9"
     inkscape:window-maximized="1"
     inkscape:current-layer="svg1"
     inkscape:export-bgcolor="#ffffff00">
    <inkscape:page
       x="0"
       y="0"
       width="1024"
       height="1024"
       id="page2"
       margin="0"
       bleed="0" />
  </sodipodi:namedview>
  <defs
     id="defs1">
    <inkscape:path-effect
       effect="powerstroke"
       message=""
       id="path-effect208"
       is_visible="true"
       lpeversion="1.3"
       scale_width="24.567474"
       interpolator_type="CentripetalCatmullRom"
       interpolator_beta="1"
       start_linecap_type="round"
       end_linecap_type="round"
       offset_points="0.22135081,0.89654686 | 1.5187697,0.86446973 | 2.8050001,0.82359235"
       linejoin_type="round"
       miter_limit="4.1"
       not_jump="false"
       sort_points="true" />
    <inkscape:path-effect
       effect="bspline"
       id="path-effect207"
       is_visible="true"
       lpeversion="1.3"
       weight="33.333333"
       steps="2"
       helper_size="0"
       apply_no_weight="true"
       apply_with_weight="true"
       only_selected="false"
       uniform="false" />
  </defs>
  <path
     style="fill:#000000;fill-opacity:1;fill-rule:nonzero;stroke:none;stroke-width:2.11667;stroke-linecap:round;stroke-linejoin:round;stroke-dasharray:none;stroke-opacity:1;paint-order:markers stroke fill"
     d="m 102.58466,455.90156 c 15.89924,-8.48735 113.9673,-60.91277 182.84796,-96.99477 7.23736,-3.79118 14.83486,-7.76159 22.67753,-11.8465 50.53888,-26.32349 118.6292,-61.27733 178.24075,-89.12655 24.7835,-11.57831 48.68846,-22.21274 70.2107,-30.92021 20.2158,-8.1789 37.92502,-14.49229 52.19149,-18.37168 6.88087,-1.87107 12.62358,-3.08242 17.24655,-3.7063 4.71362,-0.63611 7.37241,-0.53724 8.55699,-0.37361 0.50385,0.0696 0.28262,0.0915 -0.40053,-0.22193 -0.7259,-0.33299 -1.99062,-1.0593 -3.2752,-2.44568 -1.32696,-1.43211 -2.2288,-3.09144 -2.71243,-4.67872 -0.45425,-1.49086 -0.42041,-2.51114 -0.4008,-2.74571 0.0215,-0.25654 7.6e-4,0.27363 -0.29377,1.31864 -0.30466,1.08095 -0.82957,2.56707 -1.67153,4.4913 -1.70566,3.89813 -4.37246,8.82777 -8.10814,14.79467 -7.54966,12.05889 -18.47682,26.79777 -31.78492,43.3957 -13.58613,16.94468 -29.36363,35.46836 -45.82737,54.34085 -17.07955,19.57841 -35.54741,40.26954 -52.69282,59.48037 3.78436,-4.24025 -11.86566,13.29618 -8.08127,9.0559 -14.60025,16.36574 -30.09599,33.77326 -44.66801,50.46699 -16.38571,18.7715 -32.37913,37.5225 -46.19576,54.76402 -6.73802,8.40826 -13.03058,16.54679 -18.66675,24.25274 -5.5585,7.59976 -10.56381,14.89468 -14.76774,21.71004 -4.13171,6.69826 -7.72689,13.31356 -10.2987,19.57354 -1.29196,3.14474 -2.42516,6.43836 -3.21718,9.79483 -0.78235,3.31546 -1.33259,7.11228 -1.16446,11.13927 0.17229,4.12695 1.10804,8.59924 3.34729,12.93238 2.27855,4.40915 5.53283,7.94236 9.31704,10.56229 3.68335,2.55011 7.56947,4.03738 11.10715,4.91027 3.54481,0.87465 7.08172,1.21793 10.39035,1.27725 6.57195,0.11782 13.6388,-0.86887 20.68331,-2.37663 7.2627,-1.55446 15.2125,-3.82037 23.63041,-6.60195 17.3522,-5.73378 37.69019,-13.99345 59.65786,-23.78093 23.45373,-10.44957 49.15331,-22.81624 75.49171,-36.00542 62.63827,-31.36665 133.59437,-69.79536 187.2333,-99.21752 16.30287,-8.94249 31.83585,-17.51137 45.69369,-25.17762 63.57542,-35.17036 155.44866,-86.63684 168.17758,-93.76325 a 20.233584,20.233584 90 0 0 -19.7686,-35.30996 c -14.86395,8.32172 -102.4232,57.4565 -167.98361,93.65533 -13.83975,7.64155 -29.31778,16.15945 -45.58508,25.05717 -53.63228,29.33523 -124.0385,67.31298 -186.02981,98.18766 -26.03976,12.96905 -51.17262,24.98113 -73.89471,35.02733 -21.40265,9.46283 -40.35883,17.04447 -55.86967,22.09762 -7.50397,2.44466 -13.95419,4.21578 -19.32014,5.33239 -5.40556,1.12485 -9.0713,1.44748 -11.26318,1.38265 -0.98265,-0.0291 -1.43061,-0.15563 -1.19191,-0.10529 0.23786,0.0502 1.22045,0.30442 2.59337,1.24815 1.47201,1.01185 2.93897,2.54407 3.97751,4.54203 1.0009,1.92555 1.24349,3.58391 1.28778,4.47529 0.0397,0.79997 -0.0736,0.92958 0.10927,0.20573 0.17558,-0.69495 0.53493,-1.83648 1.23268,-3.49921 1.41947,-3.38263 3.7872,-7.85747 7.29088,-13.47705 3.48661,-5.59219 7.85193,-11.92725 13.0107,-18.92543 5.20808,-7.06507 11.13306,-14.682 17.62343,-22.72949 13.33302,-16.53175 28.93666,-34.73636 45.21123,-53.28811 14.44599,-16.46731 29.85166,-33.6955 44.48414,-50.02656 1.00114,-1.11735 7.09386,-7.91484 8.095,-9.03219 17.15358,-19.13729 35.82913,-39.97098 53.13982,-59.72556 16.67063,-19.02416 32.92831,-38.01213 47.09255,-55.58442 13.74011,-17.04611 25.90341,-33.24021 34.80516,-47.3438 4.40856,-6.98474 8.2534,-13.82544 11.12039,-20.28508 1.44091,-3.24655 2.71679,-6.57927 3.69238,-9.93443 0.96724,-3.32645 1.73157,-6.98804 1.95703,-10.8246 0.22839,-3.8865 -0.0854,-8.15328 -1.42054,-12.49015 -1.36739,-4.44167 -3.68884,-8.55695 -6.95115,-12.06195 -3.22637,-3.4664 -6.9499,-5.88651 -10.62903,-7.54389 -3.64557,-1.64225 -7.3379,-2.5804 -10.7657,-3.11128 -6.7693,-1.0484 -13.94357,-0.72177 -20.79193,0.16958 -7.10986,0.92539 -14.83035,2.59239 -22.90152,4.75833 -16.67615,4.47512 -36.21272,11.45453 -57.17956,19.88458 -22.50307,9.04771 -47.18003,19.98189 -72.38891,31.70985 -60.59986,28.19296 -129.41493,63.42875 -180.06206,89.75633 -7.88175,4.09712 -15.51255,8.07769 -22.78043,11.87862 -70.25628,36.74231 -166.223095,88.11841 -183.165062,97.16238 a 22.025892,22.025892 90 0 0 20.745002,38.86136 z"
     id="path206"
     inkscape:path-effect="#path-effect207;#path-effect208"
     inkscape:original-d="M 92.212158,436.47088 C 372.43467,286.88226 652.65156,137.29665 932.87966,-12.294957 645.99166,254.10105 359.12087,520.48108 72.232855,786.87709 363.21927,623.96568 654.19405,461.0608 945.17464,298.15265"
     transform="translate(0,125.94189)"
     sodipodi:nodetypes="cccc" />
</svg>
