<?xml version="1.0" encoding="UTF-8" standalone="no"?>
<!-- Created with Inkscape (http://www.inkscape.org/) -->

<svg
   width="1024mm"
   height="1024mm"
   viewBox="0 0 1024 1024"
   version="1.1"
   id="svg1"
   inkscape:export-filename="pressurePenType.svg"
   inkscape:export-xdpi="96"
   inkscape:export-ydpi="96"
   xmlns:inkscape="http://www.inkscape.org/namespaces/inkscape"
   xmlns:sodipodi="http://sodipodi.sourceforge.net/DTD/sodipodi-0.dtd"
   xmlns="http://www.w3.org/2000/svg"
   xmlns:svg="http://www.w3.org/2000/svg">
  <sodipodi:namedview
     id="namedview1"
     pagecolor="#ffffff"
     bordercolor="#000000"
     borderopacity="0.25"
     inkscape:showpageshadow="2"
     inkscape:pageopacity="0.0"
     inkscape:pagecheckerboard="0"
     inkscape:deskcolor="#d1d1d1"
     inkscape:document-units="mm"
     inkscape:zoom="0.17215734"
     inkscape:cx="2082.3974"
     inkscape:cy="2076.5888"
     inkscape:window-width="1920"
     inkscape:window-height="991"
     inkscape:window-x="-9"
     inkscape:window-y="-9"
     inkscape:window-maximized="1"
     inkscape:current-layer="svg1"
     inkscape:export-bgcolor="#ffffff00">
    <inkscape:page
       x="0"
       y="0"
       width="1024"
       height="1024"
       id="page2"
       margin="0"
       bleed="0" />
  </sodipodi:namedview>
  <defs
     id="defs1">
    <inkscape:path-effect
       effect="powerstroke"
       message=""
       id="path-effect208"
       is_visible="true"
       lpeversion="1.3"
       scale_width="23.183391"
       interpolator_type="CentripetalCatmullRom"
       interpolator_beta="1"
       start_linecap_type="zerowidth"
       end_linecap_type="zerowidth"
       offset_points="0.2,1.0583349 | 1.4868804,1.6599144 | 2.794738,1.0298137"
       linejoin_type="round"
       miter_limit="4"
       not_jump="false"
       sort_points="true" />
    <inkscape:path-effect
       effect="bspline"
       id="path-effect207"
       is_visible="true"
       lpeversion="1.3"
       weight="33.333333"
       steps="2"
       helper_size="0"
       apply_no_weight="true"
       apply_with_weight="true"
       only_selected="false"
       uniform="false" />
  </defs>
  <path
     style="fill:#000000;fill-opacity:1;fill-rule:nonzero;stroke:none;stroke-width:2.11667;stroke-linecap:round;stroke-linejoin:round;stroke-dasharray:none;stroke-opacity:1;paint-order:markers stroke fill"
     d="m 92.212158,436.47088 c 29.947992,-11.35139 96.720322,-31.24726 177.276332,-66.36854 12.76191,-5.56402 26.47793,-11.69279 41.08396,-18.30995 54.25043,-24.5778 120.35812,-55.87173 181.13115,-82.37686 25.01379,-10.90934 48.91159,-20.88825 70.26764,-28.98828 20.17536,-7.6522 37.39514,-13.36256 50.85823,-16.68657 6.48921,-1.60217 11.56513,-2.51222 15.2719,-2.88445 3.52245,-0.35372 5.38918,0.0374 3.97738,-0.0934 -0.61777,-0.0573 -2.32318,-0.32336 -4.6851,-1.34423 -2.42835,-1.04958 -5.62875,-2.94309 -8.68012,-6.16651 -3.12658,-3.30288 -5.30637,-7.17484 -6.54419,-11.08483 -1.18277,-3.7361 -1.29579,-6.81649 -1.21098,-8.65579 0.0868,-1.88173 0.31739,-2.52981 0.26689,-2.41345 -0.0505,0.1164 -0.34874,0.98934 -0.95207,2.32514 -1.30131,2.88111 -3.52682,7.01544 -7.02999,12.56381 -7.09378,11.23522 -17.57124,25.36297 -30.71227,41.72748 -13.41575,16.70661 -29.04428,35.04968 -45.39147,53.78045 -15.26492,17.4907 -31.53496,35.74924 -46.93961,52.98625 -0.4045,0.45262 -5.24861,5.87127 -5.65311,6.32388 -17.03943,19.05786 -35.74899,39.95902 -52.9383,59.60593 -16.51884,18.88059 -32.68906,37.79813 -46.71004,55.27836 -6.86145,8.5543 -13.31505,16.89654 -19.13196,24.85565 -5.7376,7.8506 -11.00822,15.53595 -15.50592,22.85454 -4.39713,7.15493 -8.48608,14.65114 -11.5215,22.10603 -1.53225,3.76317 -2.9737,7.94585 -4.00962,12.40367 -1.01938,4.38663 -1.82802,9.80971 -1.55879,15.8191 0.27753,6.19458 1.71732,13.18311 5.30409,20.07335 3.65964,7.03025 8.86658,12.62207 14.81216,16.70313 5.76305,3.95578 11.6685,6.13084 16.72688,7.3438 5.06996,1.21573 9.9083,1.6158 14.13259,1.65053 8.34537,0.0686 16.76799,-1.28456 24.43538,-3.03743 7.99706,-1.82824 16.51001,-4.40798 25.23425,-7.44342 17.99086,-6.25959 38.74611,-15.11593 60.70831,-25.39042 23.56353,-11.02364 49.22953,-24.01722 75.33099,-37.84622 63.27446,-33.52391 131.80369,-73.37921 184.24986,-105.70688 12.77917,-7.87704 24.81933,-15.43831 35.92267,-22.55946 79.65856,-51.08914 137.22706,-99.17122 165.14686,-119.36264 -31.80746,13.24743 -102.78551,37.53802 -188.21795,77.55708 -11.93384,5.59015 -24.66727,11.66666 -38.15248,18.17419 -56.1786,27.10998 -125.08756,61.71534 -189.01329,91.69832 -26.19976,12.28844 -51.39052,23.69345 -74.05541,33.18652 -21.3433,8.93954 -39.92978,15.96435 -54.81919,20.48812 -7.17952,2.18131 -13.08831,3.65352 -17.71632,4.49092 -4.45857,0.80675 -7.47539,0.83038 -7.51113,0.72185 -0.0177,-0.0538 0.74253,-0.13358 2.55036,0.26799 1.80049,0.39995 4.75504,1.3286 8.21313,3.68171 3.6342,2.47294 7.05312,6.06493 9.47261,10.68283 2.34879,4.48299 3.09506,8.65856 3.24457,11.61627 0.13875,2.745 -0.22908,4.5778 -0.28506,4.88557 -0.0797,0.43794 -0.007,0.12516 0.44025,-0.89041 0.9726,-2.2095 2.80505,-5.74481 6.06807,-10.94453 3.19007,-5.08347 7.28136,-11.01822 12.27252,-17.78094 5.01923,-6.80074 10.77781,-14.2084 17.15822,-22.12657 13.08022,-16.23272 28.46266,-34.22489 44.69701,-52.77384 16.86823,-19.27322 35.26548,-39.8364 52.39002,-58.9756 -8.76822,9.79977 14.43147,-16.12948 5.66319,-6.32964 15.3855,-17.19783 31.98355,-35.76362 47.57679,-53.56622 16.6773,-19.04025 33.13013,-38.25527 47.52841,-56.14477 13.85549,-17.2151 26.4807,-34.02552 35.87783,-49.01204 4.64275,-7.40426 8.91464,-15.01852 12.19855,-22.51597 1.65397,-3.77616 3.19972,-7.84394 4.41183,-12.10058 1.19631,-4.20115 2.22928,-9.14658 2.51768,-14.55669 0.2928,-5.4926 -0.16603,-11.81437 -2.23071,-18.40021 -2.12051,-6.76392 -5.72104,-13.09102 -10.78285,-18.46802 -4.99201,-5.30284 -10.65196,-8.89031 -16.03397,-11.26475 -5.31466,-2.34472 -10.50832,-3.58026 -15.05033,-4.23361 -8.89724,-1.27983 -17.74261,-0.66299 -25.3715,0.44979 -8.00494,1.16764 -16.41661,3.15097 -24.87619,5.58019 -17.42187,5.00279 -37.45885,12.60397 -58.51284,21.5697 -22.59857,9.62347 -47.25249,21.20096 -72.33199,33.6418 -60.56342,30.04284 -126.49446,66.54814 -177.17161,96.50599 -13.84736,8.18588 -26.82278,16.03834 -38.65803,23.39446 C 171.752,373.22314 118.30866,417.90454 92.212158,436.47088 Z"
     id="path206"
     inkscape:path-effect="#path-effect207;#path-effect208"
     inkscape:original-d="M 92.212158,436.47088 C 372.43467,286.88226 652.65156,137.29665 932.87966,-12.294957 645.99166,254.10105 359.12087,520.48108 72.232855,786.87709 363.21927,623.96568 654.19405,461.0608 945.17464,298.15265"
     transform="translate(0,125.94189)"
     sodipodi:nodetypes="cccc" />
</svg>
