<?xml version="1.0" encoding="UTF-8" standalone="no"?>
<!-- Created with Inkscape (http://www.inkscape.org/) -->

<svg
   width="1024mm"
   height="1024mm"
   viewBox="0 0 1024 1024"
   version="1.1"
   id="svg1"
   inkscape:export-filename="strokeWidth1png.svg"
   inkscape:export-xdpi="96"
   inkscape:export-ydpi="96"
   xmlns:inkscape="http://www.inkscape.org/namespaces/inkscape"
   xmlns:sodipodi="http://sodipodi.sourceforge.net/DTD/sodipodi-0.dtd"
   xmlns="http://www.w3.org/2000/svg"
   xmlns:svg="http://www.w3.org/2000/svg">
  <sodipodi:namedview
     id="namedview1"
     pagecolor="#ffffff"
     bordercolor="#000000"
     borderopacity="0.25"
     inkscape:showpageshadow="2"
     inkscape:pageopacity="0.0"
     inkscape:pagecheckerboard="0"
     inkscape:deskcolor="#d1d1d1"
     inkscape:document-units="mm">
    <inkscape:page
       x="0"
       y="0"
       width="1024"
       height="1024"
       id="page2"
       margin="0"
       bleed="0" />
  </sodipodi:namedview>
  <defs
     id="defs1">
    <inkscape:path-effect
       effect="powerstroke"
       message=""
       id="path-effect3"
       is_visible="true"
       lpeversion="1.3"
       scale_width="14.444444"
       interpolator_type="CentripetalCatmullRom"
       interpolator_beta="0.2"
       start_linecap_type="round"
       end_linecap_type="round"
       offset_points="0.2,2.6458349 | 0.5,2.6458349 | 0.8,2.6458349"
       linejoin_type="round"
       miter_limit="4"
       not_jump="false"
       sort_points="true" />
    <inkscape:path-effect
       effect="bspline"
       id="path-effect2"
       is_visible="true"
       lpeversion="1.3"
       weight="33.333333"
       steps="2"
       helper_size="0"
       apply_no_weight="true"
       apply_with_weight="true"
       only_selected="false"
       uniform="false" />
    <inkscape:path-effect
       effect="fill_between_many"
       method="bsplinespiro"
       autoreverse="false"
       close="false"
       join="false"
       linkedpaths="#path1,0,1"
       id="path-effect4"
       is_visible="true"
       lpeversion="0" />
  </defs>
  <path
     inkscape:original-d="M 0,0"
     inkscape:path-effect="#path-effect4"
     d="m 108.67308,497.72267 c 268.06024,0 536.12049,1e-5 804.18071,1e-5"
     id="path4"
     style="fill:#000000" />
  <path
     style="fill:#000000;fill-opacity:1;fill-rule:nonzero;stroke:none;stroke-width:5.29167;stroke-linecap:round;stroke-linejoin:round;stroke-dasharray:none;paint-order:markers stroke fill"
     d="m 108.67308,535.94028 c 26.80602,0 101.80818,10e-6 160.83614,10e-6 72.2942,0 160.83614,0 241.25422,0 80.41807,0 168.96001,0 241.25421,0 59.02796,0 134.03012,0 160.83614,0 a 38.217614,38.217614 90 0 0 0,-76.43522 c -26.80602,0 -101.80818,-10e-6 -160.83614,-10e-6 -72.2942,0 -160.83614,0 -241.25421,0 -80.41808,0 -168.96002,0 -241.25422,0 -59.02796,0 -134.03012,0 -160.83614,0 a 38.217614,38.217614 90 0 0 0,76.43522 z"
     id="path1"
     inkscape:path-effect="#path-effect2;#path-effect3"
     inkscape:original-d="m 108.67308,497.72267 c 268.06024,0 536.12049,1e-5 804.18071,1e-5"
     inkscape:linked-fill="path4"
     sodipodi:nodetypes="cc" />
</svg>
